<?xml version="1.0" encoding="utf-8"?>
<!-- Generator: Adobe Illustrator 27.5.0, SVG Export Plug-In . SVG Version: 6.00 Build 0)  -->
<svg version="1.1" id="Layer_1" xmlns:serif="http://www.serif.com/"
	 xmlns="http://www.w3.org/2000/svg" xmlns:xlink="http://www.w3.org/1999/xlink" x="0px" y="0px" viewBox="0 0 4000 3000"
	 style="enable-background:new 0 0 4000 3000;" xml:space="preserve">
<rect id="Coding-For-Kids-3" serif:id="Coding For Kids 3" style="fill:none;" width="4000" height="3000">
</rect>
<rect style="fill-rule:evenodd;clip-rule:evenodd;fill:#FFFFFF;" width="4000" height="3000"/>
<g id="Back">
	<path style="fill-rule:evenodd;clip-rule:evenodd;fill:#E5EDFC;" d="M753.311,2566.68h2574.21
		c221.903-173.109,164.178-591.493,0-693.964c-197.913-123.525-252.412-306.146-218.844-458.512
		c62.486-283.63-71.896-522.736-398.399-522.284c-280.396,0.388-318.862-219.197-432.726-335.886
		c-110.218-112.954-447.468-229.451-637.195,53.014c-107.274,159.709-4.549,380.396-321.242,449.332
		c-271.371,59.071-378.787,281.16-363.696,415.866c15,133.892,153.437,316.001-95.607,479.704
		c-252.785,166.161-244.412,478.861-106.503,612.73H753.311z"/>
	<path style="fill-rule:evenodd;clip-rule:evenodd;fill:#8996DB;" d="M3583.53,2577.57c0-6.899-5.601-12.5-12.5-12.5H428.98
		c-6.899,0-12.5,5.601-12.5,12.5s5.601,12.5,12.5,12.5h3142.05C3577.929,2590.07,3583.53,2584.469,3583.53,2577.57z"/>
</g>
<g id="Front">
	<g>
		<path style="fill-rule:evenodd;clip-rule:evenodd;fill:#FFC4CD;" d="M1824.91,2273.73l-72.92,292.888h192.261l15.21-275.422
			L1824.91,2273.73L1824.91,2273.73z"/>
		<path style="fill-rule:evenodd;clip-rule:evenodd;fill:#FFC4CD;" d="M2124.37,1752.94l1.1,160.552
			c79.902,44.954,159.804,26.857,239.706,0V1685.74L2124.37,1752.94L2124.37,1752.94z"/>
		<path style="fill-rule:evenodd;clip-rule:evenodd;fill:#D8738A;" d="M2365.18,1755.84v-70.104l-240.806,67.2l0.779,113.65
			C2169.055,1862.969,2304.733,1844.74,2365.18,1755.84L2365.18,1755.84z"/>
		
			<linearGradient id="SVGID_1_" gradientUnits="userSpaceOnUse" x1="0.9983" y1="3001.104" x2="1.9983" y2="3001.104" gradientTransform="matrix(32.0831 672.157 672.157 -32.0831 -2014999.625 97504.7891)">
			<stop  offset="0" style="stop-color:#FFD95B"/>
			<stop  offset="1" style="stop-color:#FFA742"/>
		</linearGradient>
		<path style="fill-rule:evenodd;clip-rule:evenodd;fill:url(#SVGID_1_);" d="M2124.37,1852.97c0,0,29.897,73.268,67.067,74.823
			c37.169,1.556,173.739-85.551,173.739-85.551s224.012,22.494,276.893,98.591c52.881,76.097,111.193,308.453,96.36,383.583
			c-81.149,10.737-160.009,10.758-241.158,0v242.205h-553.024v-229.662c0,0-137.392-2.116-154.567-43.337
			c-15.478-37.146,92.08-334.232,138.469-365.829C1994.186,1882.814,2124.37,1852.97,2124.37,1852.97L2124.37,1852.97z"/>
		<path style="fill-rule:evenodd;clip-rule:evenodd;fill:#FFFFFF;" d="M2098.24,1858.52c0,0,15.359,42.956,38.669,70.729
			c11.961,14.251,26.202,24.379,41.023,26.44c17.446,2.426,44.611-6.364,73.627-21.419c60.822-31.559,132.349-88.277,132.349-88.277
			c6.484-5.146,7.571-14.59,2.424-21.074c-5.147-6.485-14.59-7.571-21.074-2.424c0,0-68.895,54.73-127.516,85.146
			c-22.181,11.509-42.341,20.189-55.678,18.334c-5.015-0.698-9.609-3.722-14.03-7.582c-5.876-5.131-11.234-11.863-16.049-19.003
			c-15.662-23.224-25.472-50.903-25.472-50.903c-2.769-7.802-11.351-11.888-19.153-9.12
			C2099.558,1842.136,2095.471,1850.718,2098.24,1858.52L2098.24,1858.52z"/>
		
			<linearGradient id="SVGID_00000036239895267691451360000014479472895781152699_" gradientUnits="userSpaceOnUse" x1="0.9976" y1="3001.0664" x2="1.9976" y2="3001.0664" gradientTransform="matrix(15.169 454.339 454.339 -15.169 -1361240.125 47181.1719)">
			<stop  offset="0" style="stop-color:#BE8714"/>
			<stop  offset="1" style="stop-color:#FF961E"/>
		</linearGradient>
		<path style="fill-rule:evenodd;clip-rule:evenodd;fill:url(#SVGID_00000036239895267691451360000014479472895781152699_);" d="
			M2506.87,2326.35c-5.174-0.6-9.595,240.271-9.595,240.271h-391.152l-43.5-177.633c131.068-82.46,402.752-64.447,402.752-64.447
			v-247.599L2506.87,2326.35L2506.87,2326.35z"/>
		<path style="fill-rule:evenodd;clip-rule:evenodd;fill:#FFC4CD;" d="M2497.46,2324.54v13.448c0,0-388.889-18.164-436.181,79.172
			c-14.422,29.683-14.874,62.935,21.428,75.942c25.877,9.272,74.04-4.909,93.793-11.35c0,0-27.722,31.299,0,40.241
			c45.267,14.603,51.109,2.614,102.219,0c25.844-1.322,341.031,25.061,391.062,0c81.532-40.839,62.698-195.503,62.698-195.503
			C2633.381,2333.333,2566.327,2334.012,2497.46,2324.54z"/>
		<path style="fill-rule:evenodd;clip-rule:evenodd;fill:#EE9CAF;" d="M2497.46,2328.9c36.143,13.208,149.771,51.433,236.798,44.443
			c0.617-27.176-1.779-46.854-1.779-46.854c-99.098,6.843-166.152,7.522-235.019-1.95V2328.9L2497.46,2328.9z"/>
		<g>
			<path style="fill-rule:evenodd;clip-rule:evenodd;fill:#592E13;" d="M1900.2,1419.35c0,0-21.049,31.633,5.418,80.649
				c23.626,43.756,0.698,64.848,46.715,88.871l20.259-169.52H1900.2z"/>
			<path style="fill-rule:evenodd;clip-rule:evenodd;fill:#7B4217;" d="M2426.36,1632.5c0,0-28.98,61.633-62.025,84.248v-70.674
				L2426.36,1632.5L2426.36,1632.5z"/>
			<path style="fill-rule:evenodd;clip-rule:evenodd;" d="M2386.91,1640.51c-0.677-7.017,2.333-15.325,7.595-20.896
				c5.041-5.338,12.26-8.091,20.366-4.276c1.248,0.587,2.739,0.05,3.326-1.198c0.588-1.249,0.051-2.739-1.197-3.327
				c-10.39-4.889-19.668-1.474-26.13,5.367c-6.241,6.608-9.74,16.488-8.936,24.811c0.132,1.373,1.355,2.38,2.728,2.248
				C2386.036,1643.106,2387.043,1641.883,2386.91,1640.51z"/>
			<path style="fill-rule:evenodd;clip-rule:evenodd;fill:#FFC4CD;" d="M1971.07,1419.35
				c-41.81,76.524-55.779,319.651,59.229,374.953c93.948,45.177,241.342-1.737,282.892-38.562
				c62.495-55.389,56.642-102.713,56.642-102.713c30.954,27.232,87.694-19.071,67.489-70.23
				c-17.02-43.092-87.231-34.985-88.196,28.233l-15.391-191.681H1971.07L1971.07,1419.35z"/>
			<path style="fill-rule:evenodd;clip-rule:evenodd;fill:#F397AD;" d="M1946.82,1500c59.699-0.006,64.09-5.276,97.715-14.005
				c46.219-12,59.389-18.33,84.72-7.22c25.332,11.111,71.937,17.886,133.266,7.22c0,0-0.889,46.663,13.333,69.773
				c14.221,23.109,17.384,43.456,14.221,76.784c-6.784,71.479,44.162,63.363,4.012,136.618c7.696-4.506,14.153-9.038,19.106-13.428
				c62.495-55.389,56.642-102.713,56.642-102.713c30.954,27.232,87.694-19.071,67.489-70.23
				c-17.02-43.092-87.231-34.985-88.196,28.233l-15.391-191.681h-362.665C1963.935,1432.413,1951.83,1478.994,1946.82,1500
				L1946.82,1500z"/>
			<path style="fill-rule:evenodd;clip-rule:evenodd;fill:#D35472;" d="M2384.76,1623.31c0.009-13.786,14.719-25.423,29.264-17.516
				c1.939,1.055,4.37,0.336,5.424-1.604c1.055-1.939,0.336-4.37-1.603-5.424c-20.409-11.096-41.073,5.196-41.085,24.538
				c-0.002,2.208,1.79,4.002,3.997,4.003C2382.965,1627.308,2384.758,1625.517,2384.76,1623.31L2384.76,1623.31z"/>
			<path style="fill-rule:evenodd;clip-rule:evenodd;fill:#7B4217;" d="M2350.02,1610.39c0,0-2.356,53.755-23.998,40.544
				c-21.642-13.21-24.199-75.39-27.214-98.316c-3.015-22.926-26.122-20.735-23.439-81.26c0,0-80.291,11.094-105.163,0
				c-24.872-11.093-97.235-16.384-118.338-5.29c-21.104,11.093-116.063,18.487-145.677,0
				c-39.583-24.712-47.525-85.751-10.005-117.086c21.65-18.082,30.988-42.256,35.768-61.942
				c10.282-42.339,38.908-60.886,75.56-63.043c36.69-2.16,107.366-28.415,121.744-42.37c33.042-32.067,90.739-39.917,136.111,24.734
				c23.986,34.179,99.631-33.557,122.881,68.897c0,0,54.989,17.128,70.063,65.199c15.074,48.071-16.67,90.957,0,130.901
				c21.796,52.229-17.763,121.849-17.763,121.849c-9.971-30.037-25.874-36.986-42.499-37.044
				C2379.985,1556.1,2352.078,1566.976,2350.02,1610.39z"/>
			<path style="fill-rule:evenodd;clip-rule:evenodd;fill:#6B3714;" d="M1873.96,1384.85
				c27.203,53.496,62.091,73.172,126.043,51.308c67.612-23.115,116.555-30.05,168.375-10.979
				c51.82,19.07,127.901,10.979,127.901,10.979c2.249,17.096,8.015,51.201,39.941,69.391c22.417,12.772,30.603,34.463,50.694,32.709
				c39.649-3.461,64.291-24.317,77.607-40.332c3.739,46.525-23.969,95.287-23.969,95.287c-9.971-30.037-25.874-36.986-42.499-37.044
				c-18.066-0.063-45.973,10.813-48.031,54.227c0,0-2.356,53.755-23.998,40.544c-21.642-13.21-24.199-75.39-27.214-98.316
				c-3.015-22.926-26.122-20.735-23.439-81.26c0,0-80.291,11.094-105.163,0c-24.872-11.093-97.235-16.384-118.338-5.29
				c-21.104,11.093-116.063,18.487-145.677,0C1878.921,1449.047,1866.669,1414.776,1873.96,1384.85L1873.96,1384.85z"/>
			<path style="fill-rule:evenodd;clip-rule:evenodd;fill:#C16707;" d="M2236.12,1548.86c0,0-25.617-38.108-94.183-16.372
				c-3.683,1.168-5.725,5.106-4.558,8.788c1.168,3.683,5.106,5.725,8.788,4.558c56.864-18.027,78.502,11.08,78.502,11.08
				c2.222,3.16,6.592,3.921,9.752,1.699C2237.581,1556.39,2238.343,1552.02,2236.12,1548.86L2236.12,1548.86z"/>
			<path style="fill-rule:evenodd;clip-rule:evenodd;fill:#C16707;" d="M1986.79,1556.92c0,0,21.638-29.107,78.501-11.08
				c3.683,1.167,7.621-0.875,8.788-4.558c1.168-3.682-0.875-7.62-4.557-8.788c-68.566-21.736-94.184,16.372-94.184,16.372
				c-2.222,3.16-1.461,7.53,1.699,9.753C1980.197,1560.841,1984.567,1560.08,1986.79,1556.92L1986.79,1556.92z"/>
			<path style="fill-rule:evenodd;clip-rule:evenodd;fill:#212167;" d="M2001.87,1593.58c3.937-6.196,11.06-9.489,18.394-9.857
				c11.167-0.559,22.977,5.814,25.646,20.038c0.51,2.712,3.125,4.501,5.837,3.992s4.501-3.125,3.992-5.837
				c-3.749-19.972-20.296-28.965-35.975-28.18c-10.563,0.529-20.665,5.558-26.335,14.482c-1.479,2.329-0.79,5.422,1.539,6.901
				C1997.298,1596.599,2000.39,1595.91,2001.87,1593.58L2001.87,1593.58z"/>
			<path style="fill-rule:evenodd;clip-rule:evenodd;fill:#212167;" d="M2212.04,1589.27c-5.67-8.924-15.772-13.953-26.335-14.482
				c-15.679-0.785-32.226,8.208-35.975,28.18c-0.509,2.712,1.28,5.328,3.992,5.837s5.328-1.28,5.837-3.992
				c2.669-14.225,14.479-20.597,25.646-20.038c7.334,0.367,14.457,3.661,18.394,9.857c1.48,2.33,4.572,3.019,6.902,1.539
				C2212.83,1594.692,2213.52,1591.599,2212.04,1589.27L2212.04,1589.27z"/>
			<path style="fill-rule:evenodd;clip-rule:evenodd;fill:#E06985;" d="M2100.37,1605.57c0,0-11.592,35.615-17.254,60.446
				c-1.758,7.709-2.939,14.417-3.102,18.82c-0.093,2.499,0.172,4.428,0.637,5.673c2.351,6.292,7.52,9.692,13.002,11.361
				c7.351,2.239,15.122,1.243,15.122,1.243c2.189-0.282,3.739-2.288,3.457-4.478c-0.282-2.19-2.288-3.739-4.478-3.457
				c0,0-6.049,0.781-11.771-0.961c-3.235-0.984-6.451-2.796-7.838-6.508c-0.319-0.855-0.198-2.35-0.022-4.312
				c0.359-4.01,1.392-9.462,2.792-15.602c5.598-24.545,17.062-59.749,17.062-59.749c0.683-2.099-0.466-4.358-2.566-5.042
				C2103.312,1602.321,2101.053,1603.47,2100.37,1605.57L2100.37,1605.57z"/>
			<path style="fill-rule:evenodd;clip-rule:evenodd;fill:#EE2424;" d="M2133.75,1753.64c2.443,2.791,6.562,4.708,11.392,5.143
				c10.176,0.917,23.503-4.603,27.126-19.809c0.512-2.147-0.816-4.306-2.964-4.818c-2.147-0.512-4.306,0.816-4.818,2.964
				c-2.14,8.98-9.159,13.096-15.542,13.686c-3.774,0.348-7.377-0.381-9.174-2.435c-1.454-1.661-3.984-1.829-5.645-0.375
				C2132.464,1749.45,2132.296,1751.979,2133.75,1753.64L2133.75,1753.64z"/>
		</g>
	</g>
	<g>
		<rect x="2084.07" y="2529.68" style="fill-rule:evenodd;clip-rule:evenodd;fill:#15195F;" width="514.131" height="36.945"/>
		
			<linearGradient id="SVGID_00000142882726659930574230000001044220770835956385_" gradientUnits="userSpaceOnUse" x1="0.9974" y1="3000.6208" x2="1.9974" y2="3000.6208" gradientTransform="matrix(0 356.015 356.015 0 -1066606.625 1752.5342)">
			<stop  offset="0" style="stop-color:#1A2494"/>
			<stop  offset="1" style="stop-color:#151969"/>
		</linearGradient>
		<path style="fill-rule:evenodd;clip-rule:evenodd;fill:url(#SVGID_00000142882726659930574230000001044220770835956385_);" d="
			M2050.3,2020.88c-2.795-15.853-17.935-28.723-33.788-28.723h-815.396c-15.853,0-26.454,12.87-23.658,28.723l91.164,517.017
			c2.795,15.853,17.935,28.723,33.787,28.723h815.396c15.853,0,26.454-12.87,23.659-28.723L2050.3,2020.88L2050.3,2020.88z"/>
		<path style="fill-rule:evenodd;clip-rule:evenodd;fill:#A6A9EB;" d="M1654.79,2211.91c-14.107-11.991-31.559-18.728-48.518-18.728
			c-35.291,0-58.891,28.652-52.668,63.943c6.223,35.292,39.927,63.944,75.218,63.944c35.315,0,58.896-28.629,52.669-63.944h-63.944
			L1654.79,2211.91L1654.79,2211.91z"/>
	</g>
	<g>
		<path style="fill-rule:evenodd;clip-rule:evenodd;fill:#1C1971;" d="M1718.74,867.07c0-16.256-13.198-29.454-29.454-29.454
			H769.693c-16.256,0-29.454,13.198-29.454,29.454v677.434c0,16.256,13.198,29.454,29.454,29.454h919.593
			c16.256,0,29.454-13.198,29.454-29.454V867.07z"/>
		<path style="fill-rule:evenodd;clip-rule:evenodd;fill:#F5D270;" d="M1295,1072.39c0-9.611-7.803-17.414-17.414-17.414H859.093
			c-9.611,0-17.414,7.803-17.414,17.414v52.242c0,9.611,7.803,17.414,17.414,17.414h418.493c9.611,0,17.414-7.803,17.414-17.414
			V1072.39z"/>
		<path style="fill-rule:evenodd;clip-rule:evenodd;fill:#4CABFF;" d="M1617.3,1214.14c0-4.612-3.744-8.355-8.355-8.355H850.027
			c-4.611,0-8.355,3.743-8.355,8.355v25.064c0,4.611,3.744,8.355,8.355,8.355h758.918c4.611,0,8.355-3.744,8.355-8.355V1214.14z"/>
		<path style="fill-rule:evenodd;clip-rule:evenodd;fill:#83E5CD;" d="M1269.96,1298.77c0-4.612-3.743-8.355-8.354-8.355H850.029
			c-4.611,0-8.355,3.743-8.355,8.355v25.064c0,4.611,3.744,8.355,8.355,8.355h411.577c4.611,0,8.354-3.744,8.354-8.355V1298.77z"/>
		<path style="fill-rule:evenodd;clip-rule:evenodd;fill:#F272BE;" d="M1617.3,1298.77c0-4.612-3.744-8.355-8.355-8.355h-305.598
			c-4.611,0-8.354,3.743-8.354,8.355v25.064c0,4.611,3.743,8.355,8.354,8.355h305.598c4.611,0,8.355-3.744,8.355-8.355V1298.77z"/>
		<path style="fill-rule:evenodd;clip-rule:evenodd;fill:#F5D270;" d="M1163.98,1383.39c0-4.611-3.744-8.354-8.355-8.354H850.028
			c-4.611,0-8.355,3.743-8.355,8.354v25.065c0,4.611,3.744,8.355,8.355,8.355h305.597c4.611,0,8.355-3.744,8.355-8.355V1383.39z"/>
		<path style="fill-rule:evenodd;clip-rule:evenodd;fill:#3834A1;" d="M740.237,960.19h978.501v-93.12
			c0-16.256-13.198-29.454-29.454-29.454H769.691c-16.256,0-29.454,13.198-29.454,29.454L740.237,960.19L740.237,960.19z"/>
		<path style="fill-rule:evenodd;clip-rule:evenodd;fill:#FFFFFF;" d="M933.205,877.886c11.6,0,21.017,9.417,21.017,21.017
			c0,11.6-9.417,21.017-21.017,21.017s-21.017-9.417-21.017-21.017C912.188,887.303,921.605,877.886,933.205,877.886z
			 M1034.8,877.886c11.6,0,21.017,9.417,21.017,21.017c0,11.6-9.417,21.017-21.017,21.017s-21.017-9.417-21.017-21.017
			C1013.783,887.303,1023.2,877.886,1034.8,877.886z M831.61,877.886c11.6,0,21.017,9.417,21.017,21.017
			c0,11.6-9.417,21.017-21.017,21.017c-11.6,0-21.017-9.417-21.017-21.017C810.593,887.303,820.01,877.886,831.61,877.886z"/>
	</g>
	<g>
		
			<linearGradient id="SVGID_00000155866797476980576240000000960159553665598364_" gradientUnits="userSpaceOnUse" x1="0.9962" y1="3000.8777" x2="1.9962" y2="3000.8777" gradientTransform="matrix(0 288.166 217.009 0 -650336.6875 1502.2762)">
			<stop  offset="0" style="stop-color:#FBE285"/>
			<stop  offset="1" style="stop-color:#F0A824"/>
		</linearGradient>
		<path style="fill-rule:evenodd;clip-rule:evenodd;fill:url(#SVGID_00000155866797476980576240000000960159553665598364_);" d="
			M1146.33,1776.15c0-13.187-10.706-23.892-23.892-23.892h-483.32c-13.187,0-23.893,10.705-23.893,23.892v350.418
			c0,13.186,10.706,23.892,23.893,23.892h483.32c13.186,0,23.892-10.706,23.892-23.892V1776.15L1146.33,1776.15z"/>
		<path style="fill-rule:evenodd;clip-rule:evenodd;fill:#3834A1;" d="M615.222,1835.09h531.105v-58.935
			c0-13.187-10.706-23.892-23.892-23.892h-483.32c-13.187,0-23.893,10.705-23.893,23.892L615.222,1835.09L615.222,1835.09z"/>
		<path style="fill-rule:evenodd;clip-rule:evenodd;fill:#FFFFFF;" d="M721.522,1782.59c6.115,0,11.079,4.964,11.079,11.079
			s-4.964,11.08-11.079,11.08c-6.115,0-11.08-4.965-11.08-11.08S715.407,1782.59,721.522,1782.59z M775.078,1782.59
			c6.115,0,11.08,4.964,11.08,11.079s-4.965,11.08-11.08,11.08c-6.114,0-11.079-4.965-11.079-11.08S768.964,1782.59,775.078,1782.59
			z M667.965,1782.59c6.115,0,11.079,4.964,11.079,11.079s-4.964,11.08-11.079,11.08c-6.115,0-11.08-4.965-11.08-11.08
			S661.85,1782.59,667.965,1782.59z"/>
		<path style="fill:#1C1971;" d="M837.596,2070.33h29.846l58.277-196.078h-29.844L837.596,2070.33z M833.865,1922.777
			l-87.063,37.883v32.055l87.063,37.884v-30.39l-56.335-23.521l56.335-23.521V1922.777L833.865,1922.777z M927.685,1922.777v30.39
			l56.334,23.521l-56.334,23.521v30.39l87.063-37.884v-32.055L927.685,1922.777L927.685,1922.777z"/>
	</g>
	
		<linearGradient id="SVGID_00000129207315592664467780000006346671391617552566_" gradientUnits="userSpaceOnUse" x1="0.9962" y1="3001.0933" x2="1.9962" y2="3001.0933" gradientTransform="matrix(-4.4002 229.912 229.912 4.4002 -687980.875 -12926.5869)">
		<stop  offset="0" style="stop-color:#83E5B7"/>
		<stop  offset="1" style="stop-color:#1EA37F"/>
	</linearGradient>
	<path style="fill-rule:evenodd;clip-rule:evenodd;fill:url(#SVGID_00000129207315592664467780000006346671391617552566_);" d="
		M2189.01,501.642c0-19.823-16.093-35.916-35.916-35.916h-306.196c-19.823,0-35.916,16.093-35.916,35.916v227.466
		c0,19.822,16.093,35.915,35.916,35.915h306.196c19.823,0,35.916-16.093,35.916-35.915V501.642L2189.01,501.642z"/>
	<path style="fill:#FFFFFF;" d="M1933.54,636.217c1.86,3.501,3.993,6.072,6.4,7.713s4.76,2.462,7.057,2.462
		c1.86,0,3.529-0.247,5.006-0.739c1.477-0.492,2.707-1.395,3.692-2.708c0.985-1.313,1.751-3.063,2.298-5.251
		c0.547-2.188,0.82-4.978,0.82-8.37v-67.285h28.227v69.583c0,5.361-0.738,10.393-2.215,15.098c-1.477,4.704-3.693,8.834-6.647,12.39
		c-2.954,3.556-6.701,6.373-11.241,8.452c-4.541,2.079-9.874,3.118-16.001,3.118c-8.753,0-16.028-1.641-21.827-4.923
		c-5.799-3.283-10.667-8.37-14.606-15.263L1933.54,636.217L1933.54,636.217z M2019.534,636.053c3.829,3.063,7.96,5.552,12.391,7.467
		c4.431,1.914,8.615,2.872,12.554,2.872c4.267,0,7.358-0.657,9.272-1.97c1.915-1.313,2.872-3.173,2.872-5.58
		c0-1.312-0.328-2.406-0.984-3.282c-0.657-0.875-1.614-1.696-2.872-2.461c-1.259-0.766-2.763-1.505-4.513-2.216
		c-1.751-0.711-3.775-1.504-6.072-2.38l-13.293-5.579c-2.845-1.094-5.58-2.544-8.206-4.349c-2.626-1.805-4.923-3.939-6.893-6.401
		c-1.969-2.461-3.528-5.278-4.677-8.451c-1.149-3.173-1.723-6.674-1.723-10.503c0-4.595,0.985-8.89,2.954-12.883
		c1.969-3.993,4.705-7.494,8.206-10.503c3.501-3.009,7.685-5.388,12.554-7.139c4.869-1.751,10.202-2.626,16.001-2.626
		c6.127,0,12.336,1.149,18.626,3.447c6.291,2.297,11.898,5.908,16.822,10.831l-14.114,17.724c-3.61-2.517-7.084-4.431-10.421-5.744
		s-6.975-1.969-10.913-1.969c-3.501,0-6.236,0.601-8.206,1.805c-1.969,1.203-2.954,3.009-2.954,5.416
		c0,2.516,1.395,4.458,4.185,5.825c2.79,1.368,6.647,2.982,11.57,4.842l12.965,5.087c6.674,2.626,11.816,6.291,15.426,10.996
		c3.611,4.704,5.416,10.776,5.416,18.216c0,4.486-0.93,8.807-2.79,12.965c-1.86,4.157-4.568,7.795-8.124,10.913
		c-3.555,3.118-7.904,5.607-13.046,7.467c-5.143,1.86-11.051,2.79-17.724,2.79c-6.784,0-13.758-1.231-20.925-3.693
		c-7.166-2.461-13.648-6.318-19.447-11.569L2019.534,636.053L2019.534,636.053z"/>
	
		<linearGradient id="SVGID_00000005246198816787933510000015351545833126970806_" gradientUnits="userSpaceOnUse" x1="0.9937" y1="3001.2278" x2="1.9937" y2="3001.2278" gradientTransform="matrix(0 154.925 154.925 0 -462331.9063 647.1131)">
		<stop  offset="0" style="stop-color:#73B8F5"/>
		<stop  offset="1" style="stop-color:#4D5EEF"/>
	</linearGradient>
	<path style="fill-rule:evenodd;clip-rule:evenodd;fill:url(#SVGID_00000005246198816787933510000015351545833126970806_);" d="
		M2825.82,788.423c0-12.915-10.485-23.4-23.399-23.4h-338.187c-12.915,0-23.4,10.485-23.4,23.4v187.198
		c0,12.915,10.485,23.4,23.4,23.4h338.187c12.914,0,23.399-10.485,23.399-23.4V788.423z"/>
	<path style="fill:#F8FBFF;" d="M2515.16,850.543h16.66v23.44h18.791v-23.44h16.659v62.958h-16.659v-24.989h-18.791v24.989h-16.66
		V850.543z M2711.007,850.543h16.66v49.01h23.827v13.948h-40.487L2711.007,850.543L2711.007,850.543z M2593.228,864.491h-16.659
		v-13.948h49.978v13.948h-16.659v49.01h-16.66L2593.228,864.491L2593.228,864.491z M2635.846,850.543h17.24l9.88,26.152
		l3.487,10.267h0.387l3.487-10.267l9.492-26.152h17.241v62.958h-15.497v-18.597c0-1.614,0.08-3.39,0.242-5.327
		c0.161-1.937,0.339-3.923,0.532-5.957c0.194-2.034,0.42-4.019,0.679-5.957c0.258-1.937,0.484-3.68,0.678-5.23h-0.388l-5.23,14.723
		l-8.717,21.211h-6.199l-8.718-21.211l-5.036-14.723h-0.388c0.194,1.55,0.42,3.293,0.678,5.23c0.259,1.938,0.485,3.923,0.678,5.957
		c0.194,2.034,0.372,4.02,0.533,5.957s0.242,3.713,0.242,5.327v18.597h-15.303L2635.846,850.543L2635.846,850.543z"/>
	
		<linearGradient id="SVGID_00000070112730334127981660000010480707834449582230_" gradientUnits="userSpaceOnUse" x1="0.9985" y1="3001.0835" x2="1.9985" y2="3001.0835" gradientTransform="matrix(0 592.434 592.434 0 -1774852.5 1182.986)">
		<stop  offset="0" style="stop-color:#242C94"/>
		<stop  offset="1" style="stop-color:#181568"/>
	</linearGradient>
	<path style="fill-rule:evenodd;clip-rule:evenodd;fill:url(#SVGID_00000070112730334127981660000010480707834449582230_);" d="
		M3356.92,1759.61c0-17.587-14.279-31.866-31.866-31.866h-467.372c-17.588,0-31.867,14.279-31.867,31.866v617.25
		c0,17.588,14.279,31.866,31.867,31.866h467.372c17.587,0,31.866-14.278,31.866-31.866V1759.61L3356.92,1759.61z"/>
	<path style="fill-rule:evenodd;clip-rule:evenodd;fill:#E0E7F7;" d="M3274.51,2304.51c0-1.79-1.453-3.243-3.244-3.243h-359.803
		c-1.79,0-3.244,1.453-3.244,3.243v15.136c0,1.79,1.454,3.244,3.244,3.244h359.803c1.791,0,3.244-1.454,3.244-3.244V2304.51z
		 M3274.51,2235.26c0-1.79-1.453-3.243-3.244-3.243h-359.803c-1.79,0-3.244,1.453-3.244,3.243v15.136
		c0,1.79,1.454,3.243,3.244,3.243h359.803c1.791,0,3.244-1.453,3.244-3.243V2235.26z M3274.51,2166.01
		c0-1.79-1.453-3.244-3.244-3.244h-359.803c-1.79,0-3.244,1.454-3.244,3.244v15.136c0,1.79,1.454,3.243,3.244,3.243h359.803
		c1.791,0,3.244-1.453,3.244-3.243V2166.01z M3274.51,2096.759c0-1.79-1.453-3.243-3.244-3.243h-359.803
		c-1.79,0-3.244,1.453-3.244,3.243v15.136c0,1.79,1.454,3.244,3.244,3.244h359.803c1.791,0,3.244-1.454,3.244-3.244V2096.759z
		 M3274.51,2027.509c0-1.79-1.453-3.243-3.244-3.243h-359.803c-1.79,0-3.244,1.453-3.244,3.243v15.136
		c0,1.79,1.454,3.244,3.244,3.244h359.803c1.791,0,3.244-1.454,3.244-3.244V2027.509z M3274.51,1958.259
		c0-1.79-1.453-3.244-3.244-3.244h-359.803c-1.79,0-3.244,1.454-3.244,3.244v15.136c0,1.79,1.454,3.243,3.244,3.243h359.803
		c1.791,0,3.244-1.453,3.244-3.243V1958.259z M3274.51,1826.511c0-7.138-5.795-12.933-12.932-12.933h-340.426
		c-7.138,0-12.933,5.795-12.933,12.933v60.351c0,7.137,5.795,12.932,12.933,12.932h340.426c7.137,0,12.932-5.795,12.932-12.932
		V1826.511z"/>
	
		<linearGradient id="SVGID_00000011733886489583734150000001472864418963821724_" gradientUnits="userSpaceOnUse" x1="0.9966" y1="3000.5659" x2="1.9966" y2="3000.5659" gradientTransform="matrix(0 316.817 316.817 0 -947727.5625 906.3992)">
		<stop  offset="0" style="stop-color:#F272BE"/>
		<stop  offset="1" style="stop-color:#B868D7"/>
	</linearGradient>
	<path style="fill-rule:evenodd;clip-rule:evenodd;fill:url(#SVGID_00000011733886489583734150000001472864418963821724_);" d="
		M3128.68,1237.31c0-17.396-14.124-31.519-31.52-31.519h-388.843c-17.397,0-31.52,14.123-31.52,31.519v252.156
		c0,17.397,14.123,31.52,31.52,31.52h388.843c17.396,0,31.52-14.123,31.52-31.52V1237.31z"/>
	<path style="fill:#FFFFFF;" d="M2779.27,1364.16c0-8.501,1.347-16.043,4.043-22.625c2.695-6.583,6.324-12.13,10.885-16.639
		c4.561-4.51,9.822-7.957,15.783-10.341c5.961-2.384,12.207-3.576,18.738-3.576c6.427,0,12.259,1.321,17.494,3.965
		c5.235,2.643,9.667,5.779,13.295,9.408l-14.617,16.483c-2.488-2.177-4.924-3.862-7.308-5.054c-2.385-1.192-5.236-1.788-8.553-1.788
		c-3.006,0-5.883,0.674-8.63,2.021c-2.747,1.348-5.132,3.266-7.153,5.754c-2.022,2.488-3.629,5.546-4.821,9.174
		c-1.192,3.629-1.788,7.724-1.788,12.285c0,9.537,1.996,16.846,5.987,21.925c3.991,5.08,9.252,7.62,15.783,7.62
		c3.939,0,7.334-0.752,10.185-2.255s5.365-3.447,7.542-5.831l14.617,16.172c-4.354,4.976-9.33,8.708-14.928,11.196
		s-11.507,3.732-17.727,3.732c-6.635,0-12.907-1.062-18.816-3.188c-5.909-2.125-11.092-5.339-15.55-9.641
		c-4.457-4.302-7.982-9.693-10.574-16.172C2780.566,1380.306,2779.27,1372.764,2779.27,1364.16L2779.27,1364.16z M2963.694,1382.975
		c3.628,2.903,7.541,5.262,11.74,7.076c4.198,1.814,8.164,2.721,11.896,2.721c4.043,0,6.971-0.622,8.786-1.866
		c1.814-1.244,2.721-3.006,2.721-5.287c0-1.244-0.311-2.281-0.933-3.11s-1.529-1.607-2.721-2.333
		c-1.193-0.725-2.618-1.425-4.277-2.099c-1.658-0.674-3.576-1.425-5.753-2.255l-12.596-5.287c-2.695-1.036-5.287-2.41-7.775-4.12
		c-2.488-1.711-4.665-3.732-6.531-6.065c-1.866-2.332-3.343-5.002-4.432-8.008c-1.088-3.007-1.632-6.324-1.632-9.952
		c0-4.354,0.933-8.423,2.799-12.207s4.457-7.101,7.775-9.952c3.317-2.851,7.282-5.106,11.895-6.764
		c4.614-1.659,9.667-2.488,15.162-2.488c5.805,0,11.688,1.088,17.649,3.265s11.274,5.598,15.939,10.263l-13.373,16.794
		c-3.421-2.384-6.713-4.198-9.874-5.442c-3.162-1.244-6.609-1.866-10.341-1.866c-3.318,0-5.909,0.57-7.775,1.71
		c-1.866,1.141-2.799,2.851-2.799,5.132c0,2.384,1.321,4.224,3.965,5.52s6.298,2.825,10.963,4.587l12.284,4.821
		c6.324,2.488,11.196,5.961,14.617,10.418c3.421,4.458,5.132,10.212,5.132,17.261c0,4.25-0.881,8.345-2.644,12.285
		c-1.762,3.939-4.328,7.386-7.697,10.34c-3.369,2.955-7.49,5.313-12.362,7.076c-4.873,1.762-10.471,2.643-16.794,2.643
		c-6.428,0-13.036-1.166-19.827-3.499c-6.79-2.332-12.932-5.986-18.426-10.962L2963.694,1382.975L2963.694,1382.975z
		 M2879.101,1382.975c3.629,2.903,7.542,5.262,11.741,7.076c4.198,1.814,8.163,2.721,11.895,2.721c4.043,0,6.972-0.622,8.786-1.866
		s2.721-3.006,2.721-5.287c0-1.244-0.311-2.281-0.933-3.11s-1.529-1.607-2.721-2.333c-1.192-0.725-2.617-1.425-4.276-2.099
		s-3.577-1.425-5.754-2.255l-12.595-5.287c-2.696-1.036-5.287-2.41-7.775-4.12c-2.488-1.711-4.665-3.732-6.531-6.065
		c-1.866-2.332-3.344-5.002-4.432-8.008c-1.089-3.007-1.633-6.324-1.633-9.952c0-4.354,0.933-8.423,2.799-12.207
		s4.458-7.101,7.775-9.952c3.318-2.851,7.283-5.106,11.896-6.764c4.613-1.659,9.667-2.488,15.161-2.488
		c5.806,0,11.689,1.088,17.65,3.265s11.274,5.598,15.939,10.263l-13.374,16.794c-3.421-2.384-6.712-4.198-9.874-5.442
		s-6.609-1.866-10.341-1.866c-3.317,0-5.909,0.57-7.775,1.71c-1.866,1.141-2.799,2.851-2.799,5.132c0,2.384,1.322,4.224,3.966,5.52
		c2.643,1.296,6.297,2.825,10.962,4.587l12.285,4.821c6.324,2.488,11.196,5.961,14.617,10.418
		c3.421,4.458,5.132,10.212,5.132,17.261c0,4.25-0.882,8.345-2.644,12.285c-1.762,3.939-4.328,7.386-7.697,10.34
		c-3.369,2.955-7.49,5.313-12.363,7.076c-4.872,1.762-10.47,2.643-16.794,2.643c-6.427,0-13.036-1.166-19.826-3.499
		c-6.79-2.332-12.932-5.986-18.427-10.962L2879.101,1382.975L2879.101,1382.975z"/>
</g>
</svg>
